<svg xmlns="http://www.w3.org/2000/svg" viewBox="0 0 24.48 38.24" enable-background="new 0 0 24.48 38.24"><style type="text/css">.st0{fill:#263238;}</style><path class="st0" d="M7.86 33.13l-1.77 3.07 3.53 2.04 1.71-2.97c-1.42-.23-2.65-1.02-3.47-2.14z"/><circle class="st0" cx="12.24" cy="29.92" r="2.04"/><path class="st0" d="M13.15 35.28l1.71 2.97 3.53-2.04-1.77-3.07c-.82 1.11-2.05 1.9-3.47 2.14zM0 0v31.28h6.98c-.11-.44-.18-.89-.18-1.36 0-3 2.44-5.44 5.44-5.44s5.44 2.44 5.44 5.44c0 .47-.07.92-.18 1.36h6.98v-31.28h-24.48zm17.68 17.19h-10.88v-3.59h10.88v3.59zm0-6.8h-10.88v-3.59h10.88v3.59z"/></svg>