<svg xmlns="http://www.w3.org/2000/svg" viewBox="0 0 246.89 279.16" enable-background="new 0 0 246.89 279.16"><style type="text/css">.st0{fill:#607D8B;}</style><path class="st0" d="M235 188.96v-101.52c6.68-.75 11.89-6.42 11.89-13.3 0-7.38-6-13.39-13.39-13.39-4.72 0-8.87 2.46-11.25 6.16l-86-49.65c.37-1.23.58-2.53.58-3.88 0-7.38-6.01-13.39-13.39-13.39s-13.39 6.01-13.39 13.39c0 1.35.2 2.65.58 3.88l-86 49.65c-2.38-3.7-6.53-6.16-11.25-6.16-7.38 0-13.38 6.01-13.38 13.39 0 6.87 5.21 12.55 11.89 13.3v101.52c-6.68.75-11.89 6.42-11.89 13.3 0 7.38 6 13.39 13.39 13.39 4.42 0 8.33-2.16 10.77-5.47l87.03 50.24c-.72 1.64-1.12 3.45-1.12 5.35 0 7.38 6.01 13.39 13.39 13.39s13.39-6.01 13.39-13.39c0-1.9-.4-3.71-1.12-5.35l87.03-50.24c2.44 3.31 6.35 5.47 10.77 5.47 7.38 0 13.39-6.01 13.39-13.39-.03-6.88-5.24-12.55-11.92-13.3zm-72.48 11.8l16.31-28.4 42.42 24.53c-.53 1.21-.89 2.5-1.04 3.87h-57.69zm-39.07 51.62c-1.89 0-3.69.4-5.32 1.11l-28.57-49.74h67.77l-28.57 49.74c-1.63-.71-3.42-1.11-5.31-1.11zm-35.61-51.62l-17.27-30.06 52.53-30.57 53.12 30.72-17.17 29.9h-71.21zm-61.16 0c-.15-1.37-.52-2.68-1.06-3.9l42.35-24.65 16.39 28.54h-57.68zm-7.97-114.34l29.83 51.93-29.81 51.63c-1.2-.52-2.49-.88-3.84-1.03v-101.51c1.34-.15 2.62-.5 3.82-1.02zm5.01-3.77l42.72 24.7-16.16 27.99-28.98-50.43c.89-.65 1.71-1.41 2.42-2.26zm99.73-55.88c2.22 0 4.31-.55 6.16-1.51l46.51 80.55-53.01 30.85-52.57-30.41 46.76-80.99c1.84.96 3.93 1.51 6.15 1.51zm102.14 58.14l-28.97 50.43-16.42-28.44 42.58-24.78c.8 1.07 1.74 2.01 2.81 2.79zm-30.7 53.45l-17.17 29.9-51.63-29.86 51.52-29.98 17.28 29.94zm-74.78.04l-51.03 29.7-17.08-29.74 17.03-29.5 51.08 29.54zm-69.85 2.96l16.23 28.25-42.38 24.66c-.79-1.06-1.73-1.99-2.79-2.78l28.94-50.13zm172.5 52.94l-42.44-24.55 16.31-28.4 28.95 50.14c-1.08.8-2.02 1.74-2.82 2.81zm5.41-4.31l-29.81-51.63 29.83-51.93c1.19.52 2.48.87 3.82 1.02v101.52c-1.36.14-2.64.49-3.84 1.02zm5.33-126.24c5.73 0 10.39 4.66 10.39 10.39s-4.66 10.39-10.39 10.39-10.39-4.66-10.39-10.39c.01-5.73 4.67-10.39 10.39-10.39zm-12.58 5.86c-.51 1.42-.81 2.94-.81 4.53 0 1.92.41 3.74 1.15 5.4l-42.56 24.77-46.6-80.72c1.18-1 2.18-2.2 2.95-3.55l85.87 49.57zm-97.47-66.61c5.73 0 10.39 4.66 10.39 10.39s-4.66 10.39-10.39 10.39-10.39-4.66-10.39-10.39 4.66-10.39 10.39-10.39zm-11.61 17.03c.78 1.35 1.77 2.55 2.95 3.55l-46.86 81.17-42.58-24.62c.91-1.8 1.43-3.83 1.43-5.98 0-1.59-.29-3.11-.81-4.53l85.87-49.59zm-108.84 54.11c0-5.73 4.66-10.39 10.39-10.39s10.39 4.66 10.39 10.39-4.66 10.39-10.39 10.39-10.39-4.66-10.39-10.39zm10.39 138.5c-5.73 0-10.39-4.66-10.39-10.38s4.66-10.39 10.39-10.39 10.39 4.66 10.39 10.39-4.67 10.38-10.39 10.38zm12.27-5.06c.52-1.2.87-2.48 1.02-3.83h59.42l29.43 51.25c-1.08.8-2.04 1.75-2.84 2.83l-87.03-50.25zm97.79 68.58c-5.73 0-10.39-4.66-10.39-10.39s4.66-10.39 10.39-10.39 10.39 4.66 10.39 10.39-4.67 10.39-10.39 10.39zm10.75-18.33c-.8-1.08-1.76-2.03-2.84-2.83l29.43-51.24h59.41c.15 1.35.5 2.63 1.02 3.83l-87.02 50.24zm99.3-45.19c-5.73 0-10.39-4.66-10.39-10.39s4.66-10.39 10.39-10.39 10.39 4.66 10.39 10.39-4.66 10.39-10.39 10.39z"/></svg>