<svg xmlns="http://www.w3.org/2000/svg" viewBox="0 0 102.85 74.8" enable-background="new 0 0 102.85 74.8"><style type="text/css">.st0{fill:#FF9800;}</style><path class="st0" d="M98.07 29.67l4.78-9.87-10.94.79 2.46 3.63-18.16 12.31-11.08-7.13 30.63-21.88 2.55 3.57 4.54-9.98-10.92 1.05 2.55 3.57-31.34 22.38-24.04-15.48c-2.27-7.5-5.66-12.63-9.95-12.63-4.19 0-7.52 4.89-9.79 12.1h-19.36v2.2h18.72c-1.31 4.88-2.18 10.6-2.56 16.5h-16.16v2.2h16.05c-.06 1.46-.1 2.93-.1 4.4 0 2.2.07 4.41.21 6.6h-16.16v2.2h16.32c.49 5.79 1.47 11.32 2.87 15.95h-19.19v2.2h19.91c2.24 6.3 5.38 10.45 9.24 10.45 3.85 0 6.97-4.13 9.22-10.39l.2.3 24.55-16.64 31.26 21.21-2.46 3.63 10.94.79-4.78-9.87-2.46 3.63-30.54-20.72 11.16-7.57 18.03 11.61-2.37 3.69 10.95.53-5.02-9.75-2.37 3.69-17.24-11.1 17.38-11.8 2.47 3.63zm-36.86-.18l-10.5 7.5-8.55-5.8c-.33-5.44-1.07-10.74-2.2-15.38l21.25 13.68zm-18.92 4.45l6.51 4.42-6.61 4.72c.1-1.88.16-3.78.16-5.68 0-1.15-.02-2.31-.06-3.46zm-13.14 38.66c-2.44 0-4.96-2.99-6.97-8.25h5.32v-2.2h-6.08c-1.36-4.25-2.4-9.66-2.92-15.95h10.65v-2.2h-10.8c-.13-2.11-.2-4.31-.2-6.6 0-1.5.03-2.97.09-4.4h10.91v-2.2h-10.8c.38-6.42 1.31-12.01 2.57-16.5h8.23v-2.2h-7.56c2.09-6.29 4.87-9.9 7.56-9.9 5.31 0 11 14.14 11 35.2 0 21.06-5.69 35.2-11 35.2zm10.13-11.03c1.33-4.58 2.25-10 2.72-15.65l8.74-6.24 10.41 7.07-21.87 14.82zm23.84-16.16l-10.47-7.1 10.55-7.54 11.03 7.1-11.11 7.54z"/></svg>