<svg xmlns="http://www.w3.org/2000/svg" viewBox="0 0 82.02 82" enable-background="new 0 0 82.02 82"><style type="text/css">.st0{fill:#FF9800;}</style><path class="st0" d="M82.02 7.67v-2.56h-39.73v-5.11h-2.56v5.11h-39.73v2.56h7.68v51.27h-7.68v2.56h32.99l-9.1 19.41 2.32 1.09 5.62-12h18.35l5.62 12 2.32-1.09-9.1-19.41h32.99v-2.56h-7.68v-51.27h7.69zm-48.99 59.77l2.78-5.94h10.39l2.78 5.94h-15.95zm38.74-8.5h-61.52v-51.27h61.53v51.27zM19.46 17.8h43.1v2.56h-43.1zM30.8 27.29h20.43v2.56h-20.43zM19.46 36.62h43.1v2.56h-43.1zM30.8 46.11h20.43v2.56h-20.43z"/></svg>