<svg xmlns="http://www.w3.org/2000/svg" viewBox="0 0 42.34 37.42" enable-background="new 0 0 42.34 37.42"><style type="text/css">.st0{fill:#FF9800;}</style><path class="st0" d="M0 37.42l21.34-37.42 13.7 24.41h-10.1l-.09-.18 3.83-.98-.25-.81-3.74 1.26-.17-.37 6.86-3.81-.63-1.03-6.6 4.26-.2-.24 2.93-2.95-.6-.61-2.73 3.19-.32-.24 4.17-6.84-1.05-.59-3.74 7.1-.27-.1 1.19-4.04-.86-.19-.86 4.1-.36-.06.29-8.24h-1.18l.21 8.24-.24.03-.92-4.06-.83.15 1.19 4.06-.27.14-3.75-7.1-1.03.59 4.21 6.78-.42.31-2.65-3.16-.61.6 2.87 2.94-.19.23-6.45-4.24-.67 1.05 6.75 3.79-.17.42-3.59-1.33-.3.82 3.75 1.01-.08.42-7.69-.32v1.13l7.69-.17.06.35-3.85.84.24.85 3.78-1.05.12.28-6.81 3.67.67 1.07 6.51-4.09.25.3-2.97 2.79.63.62 2.72-3.02.46.3-4.32 6.72 1.09.66 3.71-7.1.34.18-1.23 3.98.8.21.87-4.06h.36l-.34 8.09h1.24l-.26-8.1.39-.05.91 4.13.84-.24-1.24-4.02.37-.15 3.66 7.14 1.08-.59-4.2-6.85.28-.21 2.86 3.05.63-.59-3.02-2.91.26-.33 6.57 4.25.64-1.04-6.86-3.83.12-.31 3.91 1.19.28-.84-4.03-.91.06-.36h10.64l6.75 12.03h-42.34z"/></svg>