<svg xmlns="http://www.w3.org/2000/svg" viewBox="0 0 36 36.02" enable-background="new 0 0 36 36.02"><style type="text/css">.st0{fill:#FF9800;}</style><path class="st0" d="M28.62 7.38c-2.72-2.72-6.47-4.4-10.61-4.4-8.29 0-15.03 6.74-15.03 15.03s6.74 15.03 15.03 15.03c4.14 0 7.89-1.68 10.61-4.4l-.65-.65c-2.55 2.55-6.08 4.13-9.96 4.13-7.78 0-14.11-6.33-14.11-14.11 0-7.78 6.33-14.11 14.11-14.11 3.89 0 7.41 1.58 9.96 4.13l.65-.65zM36 0h-1.16l.59.57.57-.57zM30.68 0c1.03.73 2 1.54 2.89 2.44l.65-.65c-.63-.63-1.3-1.23-2.01-1.79h-1.53zM26.76 9.25c-2.24-2.24-5.34-3.62-8.75-3.62-6.83 0-12.39 5.56-12.39 12.39 0 6.83 5.56 12.39 12.39 12.39 3.41 0 6.5-1.39 8.75-3.62l-.65-.65c-2.08 2.07-4.94 3.35-8.1 3.35-6.33 0-11.47-5.15-11.47-11.47 0-6.33 5.15-11.47 11.47-11.47 3.16 0 6.02 1.28 8.1 3.35l.65-.65zM32.35 3.65c-1.45-1.45-3.13-2.69-4.97-3.65h-2.19c2.46.98 4.67 2.46 6.52 4.3l.64-.65zM24.89 11.11c-1.77-1.76-4.2-2.85-6.88-2.85-5.38 0-9.75 4.37-9.75 9.75s4.37 9.75 9.75 9.75c2.68 0 5.12-1.09 6.88-2.85l-.65-.65c-1.6 1.59-3.8 2.58-6.23 2.58-4.87 0-8.83-3.96-8.83-8.83s3.96-8.83 8.83-8.83c2.43 0 4.64.99 6.23 2.58l.65-.65zM23.03 12.98c-1.29-1.28-3.06-2.08-5.02-2.08-3.92 0-7.11 3.19-7.11 7.11 0 3.92 3.19 7.11 7.11 7.11 1.96 0 3.73-.79 5.02-2.08l-.65-.65c-1.12 1.12-2.67 1.81-4.37 1.81-3.42 0-6.19-2.78-6.19-6.19 0-3.42 2.78-6.19 6.19-6.19 1.7 0 3.25.69 4.37 1.81l.65-.65zM18.01 17.09c.25 0 .47.1.64.26l.65-.65c-.33-.33-.79-.53-1.29-.53-1.01 0-1.84.82-1.84 1.84s.82 1.84 1.84 1.84c.5 0 .96-.2 1.29-.53l-.65-.65c-.17.16-.39.26-.64.26-.51 0-.92-.41-.92-.92s.41-.92.92-.92zM21.16 14.84c-.81-.8-1.92-1.3-3.15-1.3-2.47 0-4.47 2.01-4.47 4.47s2.01 4.47 4.47 4.47c1.23 0 2.34-.5 3.15-1.3l-.65-.65c-.64.64-1.53 1.03-2.5 1.03-1.96 0-3.56-1.6-3.56-3.56s1.6-3.56 3.56-3.56c.98 0 1.86.4 2.5 1.03l.65-.63zM29.84 29.86c-3.03 3.03-7.22 4.9-11.83 4.9-9.24 0-16.75-7.51-16.75-16.75s7.52-16.75 16.75-16.75c4.61 0 8.8 1.87 11.83 4.9l.65-.65c-3.2-3.19-7.61-5.17-12.48-5.17-9.74 0-17.67 7.93-17.67 17.67s7.93 17.67 17.67 17.67c4.87 0 9.28-1.98 12.48-5.17l-.65-.65zM0 25.19v2.19c1.93 3.69 4.95 6.72 8.64 8.64h2.19c-4.92-1.97-8.86-5.91-10.83-10.83zM30.68 36.02h1.53c.7-.56 1.37-1.15 2.01-1.79l-.65-.65c-.89.9-1.86 1.71-2.89 2.44zM0 0v1.18c.38-.41.77-.8 1.18-1.18h-1.18zM34.84 36.02h1.16l-.57-.57-.59.57zM31.7 31.72c-1.84 1.84-4.06 3.32-6.52 4.3h2.19c1.84-.96 3.52-2.2 4.97-3.65l-.64-.65zM5.35 0h-1.54c-1.41 1.12-2.69 2.4-3.81 3.81v1.53c1.46-2.07 3.27-3.88 5.35-5.34zM0 30.68v1.53c1.12 1.41 2.4 2.7 3.81 3.81h1.53c-2.07-1.46-3.88-3.27-5.34-5.34zM10.84 0h-2.2c-3.69 1.93-6.71 4.95-8.64 8.64v2.19c1.97-4.92 5.91-8.86 10.84-10.83zM0 36.02h1.18c-.41-.38-.8-.77-1.18-1.18v1.18z"/></svg>