<svg xmlns="http://www.w3.org/2000/svg" viewBox="0 0 27.64 27.64" enable-background="new 0 0 27.64 27.64"><style type="text/css">.st0{fill:#B0BEC5;}</style><circle class="st0" cx="4.01" cy="4.01" r="2.3"/><path class="st0" d="M23.59 4.05c-4.27-4.27-10.64-5.16-15.79-2.67 1.28 1.8 1.12 4.31-.5 5.93s-4.12 1.77-5.92.49c-2.49 5.15-1.6 11.52 2.67 15.79 5.4 5.4 14.15 5.4 19.54 0 5.4-5.4 5.4-14.15 0-19.54zm-6.51 13.03c-1.8 1.8-4.72 1.8-6.51 0-1.8-1.8-1.8-4.72 0-6.51 1.8-1.8 4.72-1.8 6.51 0 1.79 1.79 1.79 4.71 0 6.51z"/></svg>